<mxfile host="Electron" modified="2023-04-20T09:33:42.811Z" agent="Mozilla/5.0 (X11; Linux x86_64) AppleWebKit/537.36 (KHTML, like Gecko) draw.io/21.1.2 Chrome/106.0.5249.199 Electron/21.4.3 Safari/537.36" etag="Now4s_VhJWVl4bNbe1uL" version="21.1.2" type="device">
  <diagram name="Page-1" id="bLCiZoYQgQ5lbHG5v26N">
    <mxGraphModel dx="658" dy="366" grid="1" gridSize="10" guides="1" tooltips="1" connect="1" arrows="1" fold="1" page="1" pageScale="1" pageWidth="1100" pageHeight="850" math="0" shadow="0">
      <root>
        <mxCell id="0" />
        <mxCell id="1" parent="0" />
        <mxCell id="GvLJOt44-2jTOQPvrztz-60" value="" style="group" vertex="1" connectable="0" parent="1">
          <mxGeometry x="540" y="330" width="150" height="95" as="geometry" />
        </mxCell>
        <mxCell id="GvLJOt44-2jTOQPvrztz-61" value="V" style="text;html=1;align=center;verticalAlign=middle;resizable=0;points=[[0.37,0.6,0,0,0],[0.7,0.6,0,0,0]];autosize=1;strokeColor=none;fillColor=none;fontSize=13;fontFamily=Helvetica;fontColor=none;" vertex="1" parent="GvLJOt44-2jTOQPvrztz-60">
          <mxGeometry x="60" width="30" height="30" as="geometry" />
        </mxCell>
        <mxCell id="GvLJOt44-2jTOQPvrztz-62" value="H" style="text;html=1;align=center;verticalAlign=middle;resizable=0;points=[[0.37,0.7,0,0,0],[0.67,0.3,0,0,0],[0.67,0.7,0,0,0]];autosize=1;strokeColor=none;fillColor=none;fontSize=13;fontFamily=Helvetica;fontColor=none;" vertex="1" parent="GvLJOt44-2jTOQPvrztz-60">
          <mxGeometry x="25" y="30" width="30" height="30" as="geometry" />
        </mxCell>
        <mxCell id="GvLJOt44-2jTOQPvrztz-63" style="edgeStyle=none;shape=connector;rounded=0;orthogonalLoop=1;jettySize=auto;html=1;entryX=0.67;entryY=0.3;entryDx=0;entryDy=0;entryPerimeter=0;labelBackgroundColor=default;strokeColor=default;strokeWidth=0.7;fontFamily=Helvetica;fontSize=13;fontColor=none;endArrow=none;endFill=0;endSize=2;exitX=0.37;exitY=0.6;exitDx=0;exitDy=0;exitPerimeter=0;" edge="1" parent="GvLJOt44-2jTOQPvrztz-60" source="GvLJOt44-2jTOQPvrztz-61" target="GvLJOt44-2jTOQPvrztz-62">
          <mxGeometry relative="1" as="geometry" />
        </mxCell>
        <mxCell id="GvLJOt44-2jTOQPvrztz-64" value="1" style="text;html=1;align=center;verticalAlign=middle;resizable=0;points=[[0.7,0.23,0,0,0]];autosize=1;strokeColor=none;fillColor=none;fontSize=13;fontFamily=Helvetica;fontColor=none;" vertex="1" parent="GvLJOt44-2jTOQPvrztz-60">
          <mxGeometry y="65" width="30" height="30" as="geometry" />
        </mxCell>
        <mxCell id="GvLJOt44-2jTOQPvrztz-65" style="edgeStyle=none;shape=connector;rounded=0;orthogonalLoop=1;jettySize=auto;html=1;entryX=0.7;entryY=0.23;entryDx=0;entryDy=0;entryPerimeter=0;labelBackgroundColor=default;strokeColor=default;strokeWidth=0.7;fontFamily=Helvetica;fontSize=13;fontColor=none;endArrow=none;endFill=0;endSize=2;exitX=0.37;exitY=0.7;exitDx=0;exitDy=0;exitPerimeter=0;" edge="1" parent="GvLJOt44-2jTOQPvrztz-60" source="GvLJOt44-2jTOQPvrztz-62" target="GvLJOt44-2jTOQPvrztz-64">
          <mxGeometry relative="1" as="geometry" />
        </mxCell>
        <mxCell id="GvLJOt44-2jTOQPvrztz-66" value="2" style="text;html=1;align=center;verticalAlign=middle;resizable=0;points=[[0.4,0.27,0,0,0]];autosize=1;strokeColor=none;fillColor=none;fontSize=13;fontFamily=Helvetica;fontColor=none;" vertex="1" parent="GvLJOt44-2jTOQPvrztz-60">
          <mxGeometry x="50" y="65" width="30" height="30" as="geometry" />
        </mxCell>
        <mxCell id="GvLJOt44-2jTOQPvrztz-67" style="edgeStyle=none;shape=connector;rounded=0;orthogonalLoop=1;jettySize=auto;html=1;entryX=0.4;entryY=0.27;entryDx=0;entryDy=0;entryPerimeter=0;labelBackgroundColor=default;strokeColor=default;strokeWidth=0.7;fontFamily=Helvetica;fontSize=13;fontColor=none;endArrow=none;endFill=0;endSize=2;exitX=0.67;exitY=0.7;exitDx=0;exitDy=0;exitPerimeter=0;" edge="1" parent="GvLJOt44-2jTOQPvrztz-60" source="GvLJOt44-2jTOQPvrztz-62" target="GvLJOt44-2jTOQPvrztz-66">
          <mxGeometry relative="1" as="geometry" />
        </mxCell>
        <mxCell id="GvLJOt44-2jTOQPvrztz-68" value="V" style="text;html=1;align=center;verticalAlign=middle;resizable=0;points=[[0.37,0.3,0,0,0],[0.37,0.7,0,0,0],[0.67,0.3,0,0,0],[0.67,0.7,0,0,0]];autosize=1;strokeColor=none;fillColor=none;fontSize=13;fontFamily=Helvetica;fontColor=none;" vertex="1" parent="GvLJOt44-2jTOQPvrztz-60">
          <mxGeometry x="95" y="30" width="30" height="30" as="geometry" />
        </mxCell>
        <mxCell id="GvLJOt44-2jTOQPvrztz-69" style="edgeStyle=none;shape=connector;rounded=0;orthogonalLoop=1;jettySize=auto;html=1;entryX=0.37;entryY=0.3;entryDx=0;entryDy=0;entryPerimeter=0;labelBackgroundColor=default;strokeColor=default;strokeWidth=0.7;fontFamily=Helvetica;fontSize=13;fontColor=none;endArrow=none;endFill=0;endSize=2;exitX=0.7;exitY=0.6;exitDx=0;exitDy=0;exitPerimeter=0;" edge="1" parent="GvLJOt44-2jTOQPvrztz-60" source="GvLJOt44-2jTOQPvrztz-61" target="GvLJOt44-2jTOQPvrztz-68">
          <mxGeometry relative="1" as="geometry" />
        </mxCell>
        <mxCell id="GvLJOt44-2jTOQPvrztz-70" value="&lt;font style=&quot;font-size: 11px;&quot;&gt;dummy&lt;/font&gt;" style="text;html=1;align=center;verticalAlign=middle;resizable=0;points=[[0.4,0.3,0,0,0]];autosize=1;strokeColor=none;fillColor=none;fontSize=13;fontFamily=Helvetica;fontColor=none;" vertex="1" parent="GvLJOt44-2jTOQPvrztz-60">
          <mxGeometry x="70" y="65" width="60" height="30" as="geometry" />
        </mxCell>
        <mxCell id="GvLJOt44-2jTOQPvrztz-71" style="edgeStyle=none;shape=connector;rounded=0;orthogonalLoop=1;jettySize=auto;html=1;labelBackgroundColor=default;strokeColor=default;strokeWidth=0.7;fontFamily=Helvetica;fontSize=13;fontColor=none;endArrow=none;endFill=0;endSize=2;exitX=0.37;exitY=0.7;exitDx=0;exitDy=0;exitPerimeter=0;entryX=0.4;entryY=0.3;entryDx=0;entryDy=0;entryPerimeter=0;" edge="1" parent="GvLJOt44-2jTOQPvrztz-60" source="GvLJOt44-2jTOQPvrztz-68" target="GvLJOt44-2jTOQPvrztz-70">
          <mxGeometry relative="1" as="geometry" />
        </mxCell>
        <mxCell id="GvLJOt44-2jTOQPvrztz-72" value="3" style="text;html=1;align=center;verticalAlign=middle;resizable=0;points=[[0.4,0.27,0,0,0]];autosize=1;strokeColor=none;fillColor=none;fontSize=13;fontFamily=Helvetica;fontColor=none;" vertex="1" parent="GvLJOt44-2jTOQPvrztz-60">
          <mxGeometry x="120" y="65" width="30" height="30" as="geometry" />
        </mxCell>
        <mxCell id="GvLJOt44-2jTOQPvrztz-73" style="edgeStyle=none;shape=connector;rounded=0;orthogonalLoop=1;jettySize=auto;html=1;entryX=0.4;entryY=0.27;entryDx=0;entryDy=0;entryPerimeter=0;labelBackgroundColor=default;strokeColor=default;strokeWidth=0.7;fontFamily=Helvetica;fontSize=13;fontColor=none;endArrow=none;endFill=0;endSize=2;exitX=0.67;exitY=0.7;exitDx=0;exitDy=0;exitPerimeter=0;" edge="1" parent="GvLJOt44-2jTOQPvrztz-60" source="GvLJOt44-2jTOQPvrztz-68" target="GvLJOt44-2jTOQPvrztz-72">
          <mxGeometry relative="1" as="geometry" />
        </mxCell>
        <mxCell id="GvLJOt44-2jTOQPvrztz-74" value="" style="rounded=0;whiteSpace=wrap;html=1;fontFamily=Helvetica;fontSize=13;fontColor=none;fillColor=none;gradientColor=none;" vertex="1" parent="1">
          <mxGeometry x="410" y="360" width="120" height="60" as="geometry" />
        </mxCell>
        <mxCell id="GvLJOt44-2jTOQPvrztz-75" value="" style="endArrow=none;html=1;rounded=0;labelBackgroundColor=default;strokeColor=default;strokeWidth=0.7;fontFamily=Helvetica;fontSize=13;fontColor=none;endSize=2;shape=connector;exitX=0.5;exitY=1;exitDx=0;exitDy=0;entryX=0.5;entryY=0;entryDx=0;entryDy=0;" edge="1" parent="1" source="GvLJOt44-2jTOQPvrztz-74" target="GvLJOt44-2jTOQPvrztz-74">
          <mxGeometry width="50" height="50" relative="1" as="geometry">
            <mxPoint x="440" y="340" as="sourcePoint" />
            <mxPoint x="490" y="290" as="targetPoint" />
          </mxGeometry>
        </mxCell>
        <mxCell id="GvLJOt44-2jTOQPvrztz-76" value="" style="endArrow=none;html=1;rounded=0;labelBackgroundColor=default;strokeColor=default;strokeWidth=0.7;fontFamily=Helvetica;fontSize=13;fontColor=none;endSize=2;shape=connector;exitX=0;exitY=0.5;exitDx=0;exitDy=0;" edge="1" parent="1" source="GvLJOt44-2jTOQPvrztz-74">
          <mxGeometry width="50" height="50" relative="1" as="geometry">
            <mxPoint x="440" y="340" as="sourcePoint" />
            <mxPoint x="470" y="390" as="targetPoint" />
          </mxGeometry>
        </mxCell>
        <mxCell id="GvLJOt44-2jTOQPvrztz-77" value="" style="endArrow=none;html=1;rounded=0;labelBackgroundColor=default;strokeColor=default;strokeWidth=0.7;fontFamily=Helvetica;fontSize=13;fontColor=none;endSize=2;shape=connector;entryX=0.75;entryY=0;entryDx=0;entryDy=0;exitX=0.75;exitY=1;exitDx=0;exitDy=0;" edge="1" parent="1" source="GvLJOt44-2jTOQPvrztz-74" target="GvLJOt44-2jTOQPvrztz-74">
          <mxGeometry width="50" height="50" relative="1" as="geometry">
            <mxPoint x="480" y="360" as="sourcePoint" />
            <mxPoint x="530" y="310" as="targetPoint" />
          </mxGeometry>
        </mxCell>
        <mxCell id="GvLJOt44-2jTOQPvrztz-78" value="1" style="text;html=1;align=center;verticalAlign=middle;resizable=0;points=[];autosize=1;strokeColor=none;fillColor=none;fontSize=13;fontFamily=Helvetica;fontColor=none;" vertex="1" parent="1">
          <mxGeometry x="424" y="359" width="30" height="30" as="geometry" />
        </mxCell>
        <mxCell id="GvLJOt44-2jTOQPvrztz-79" value="2" style="text;html=1;align=center;verticalAlign=middle;resizable=0;points=[];autosize=1;strokeColor=none;fillColor=none;fontSize=13;fontFamily=Helvetica;fontColor=none;" vertex="1" parent="1">
          <mxGeometry x="424" y="389" width="30" height="30" as="geometry" />
        </mxCell>
        <mxCell id="GvLJOt44-2jTOQPvrztz-80" value="&lt;font style=&quot;font-size: 11px;&quot;&gt;dummy&lt;/font&gt;" style="text;html=1;align=center;verticalAlign=middle;resizable=0;points=[];autosize=1;strokeColor=none;fillColor=none;fontSize=13;fontFamily=Helvetica;fontColor=none;rotation=270;" vertex="1" parent="1">
          <mxGeometry x="455" y="372" width="60" height="30" as="geometry" />
        </mxCell>
        <mxCell id="GvLJOt44-2jTOQPvrztz-81" value="3" style="text;html=1;align=center;verticalAlign=middle;resizable=0;points=[];autosize=1;strokeColor=none;fillColor=none;fontSize=13;fontFamily=Helvetica;fontColor=none;" vertex="1" parent="1">
          <mxGeometry x="500" y="375" width="30" height="30" as="geometry" />
        </mxCell>
        <mxCell id="GvLJOt44-2jTOQPvrztz-104" value="" style="group" vertex="1" connectable="0" parent="1">
          <mxGeometry x="540" y="230" width="150" height="100" as="geometry" />
        </mxCell>
        <mxCell id="GvLJOt44-2jTOQPvrztz-105" value="V" style="text;html=1;align=center;verticalAlign=middle;resizable=0;points=[[0.37,0.6,0,0,0],[0.7,0.6,0,0,0]];autosize=1;strokeColor=none;fillColor=none;fontSize=13;fontFamily=Helvetica;fontColor=none;" vertex="1" parent="GvLJOt44-2jTOQPvrztz-104">
          <mxGeometry x="60" width="30" height="30" as="geometry" />
        </mxCell>
        <mxCell id="GvLJOt44-2jTOQPvrztz-106" value="H" style="text;html=1;align=center;verticalAlign=middle;resizable=0;points=[[0.37,0.7,0,0,0],[0.67,0.3,0,0,0],[0.67,0.7,0,0,0]];autosize=1;strokeColor=none;fillColor=none;fontSize=13;fontFamily=Helvetica;fontColor=none;" vertex="1" parent="GvLJOt44-2jTOQPvrztz-104">
          <mxGeometry x="25" y="30" width="30" height="30" as="geometry" />
        </mxCell>
        <mxCell id="GvLJOt44-2jTOQPvrztz-107" style="edgeStyle=none;shape=connector;rounded=0;orthogonalLoop=1;jettySize=auto;html=1;entryX=0.67;entryY=0.3;entryDx=0;entryDy=0;entryPerimeter=0;labelBackgroundColor=default;strokeColor=default;strokeWidth=0.7;fontFamily=Helvetica;fontSize=13;fontColor=none;endArrow=none;endFill=0;endSize=2;exitX=0.37;exitY=0.6;exitDx=0;exitDy=0;exitPerimeter=0;" edge="1" parent="GvLJOt44-2jTOQPvrztz-104" source="GvLJOt44-2jTOQPvrztz-105" target="GvLJOt44-2jTOQPvrztz-106">
          <mxGeometry relative="1" as="geometry" />
        </mxCell>
        <mxCell id="GvLJOt44-2jTOQPvrztz-108" value="1" style="text;html=1;align=center;verticalAlign=middle;resizable=0;points=[[0.7,0.23,0,0,0]];autosize=1;strokeColor=none;fillColor=none;fontSize=13;fontFamily=Helvetica;fontColor=none;" vertex="1" parent="GvLJOt44-2jTOQPvrztz-104">
          <mxGeometry y="65" width="30" height="30" as="geometry" />
        </mxCell>
        <mxCell id="GvLJOt44-2jTOQPvrztz-109" style="edgeStyle=none;shape=connector;rounded=0;orthogonalLoop=1;jettySize=auto;html=1;entryX=0.7;entryY=0.23;entryDx=0;entryDy=0;entryPerimeter=0;labelBackgroundColor=default;strokeColor=default;strokeWidth=0.7;fontFamily=Helvetica;fontSize=13;fontColor=none;endArrow=none;endFill=0;endSize=2;exitX=0.37;exitY=0.7;exitDx=0;exitDy=0;exitPerimeter=0;" edge="1" parent="GvLJOt44-2jTOQPvrztz-104" source="GvLJOt44-2jTOQPvrztz-106" target="GvLJOt44-2jTOQPvrztz-108">
          <mxGeometry relative="1" as="geometry" />
        </mxCell>
        <mxCell id="GvLJOt44-2jTOQPvrztz-110" value="2" style="text;html=1;align=center;verticalAlign=middle;resizable=0;points=[[0.4,0.27,0,0,0]];autosize=1;strokeColor=none;fillColor=none;fontSize=13;fontFamily=Helvetica;fontColor=none;" vertex="1" parent="GvLJOt44-2jTOQPvrztz-104">
          <mxGeometry x="50" y="65" width="30" height="30" as="geometry" />
        </mxCell>
        <mxCell id="GvLJOt44-2jTOQPvrztz-111" style="edgeStyle=none;shape=connector;rounded=0;orthogonalLoop=1;jettySize=auto;html=1;entryX=0.4;entryY=0.27;entryDx=0;entryDy=0;entryPerimeter=0;labelBackgroundColor=default;strokeColor=default;strokeWidth=0.7;fontFamily=Helvetica;fontSize=13;fontColor=none;endArrow=none;endFill=0;endSize=2;exitX=0.67;exitY=0.7;exitDx=0;exitDy=0;exitPerimeter=0;" edge="1" parent="GvLJOt44-2jTOQPvrztz-104" source="GvLJOt44-2jTOQPvrztz-106" target="GvLJOt44-2jTOQPvrztz-110">
          <mxGeometry relative="1" as="geometry" />
        </mxCell>
        <mxCell id="GvLJOt44-2jTOQPvrztz-112" value="3" style="text;html=1;align=center;verticalAlign=middle;resizable=0;points=[[0.37,0.3,0,0,0],[0.37,0.7,0,0,0],[0.67,0.3,0,0,0],[0.67,0.7,0,0,0]];autosize=1;strokeColor=none;fillColor=none;fontSize=13;fontFamily=Helvetica;fontColor=none;" vertex="1" parent="GvLJOt44-2jTOQPvrztz-104">
          <mxGeometry x="95" y="30" width="30" height="30" as="geometry" />
        </mxCell>
        <mxCell id="GvLJOt44-2jTOQPvrztz-113" style="edgeStyle=none;shape=connector;rounded=0;orthogonalLoop=1;jettySize=auto;html=1;entryX=0.37;entryY=0.3;entryDx=0;entryDy=0;entryPerimeter=0;labelBackgroundColor=default;strokeColor=default;strokeWidth=0.7;fontFamily=Helvetica;fontSize=13;fontColor=none;endArrow=none;endFill=0;endSize=2;exitX=0.7;exitY=0.6;exitDx=0;exitDy=0;exitPerimeter=0;" edge="1" parent="GvLJOt44-2jTOQPvrztz-104" source="GvLJOt44-2jTOQPvrztz-105" target="GvLJOt44-2jTOQPvrztz-112">
          <mxGeometry relative="1" as="geometry" />
        </mxCell>
        <mxCell id="GvLJOt44-2jTOQPvrztz-118" value="" style="rounded=0;whiteSpace=wrap;html=1;fontFamily=Helvetica;fontSize=13;fontColor=none;fillColor=none;gradientColor=none;" vertex="1" parent="1">
          <mxGeometry x="410" y="260" width="120" height="60" as="geometry" />
        </mxCell>
        <mxCell id="GvLJOt44-2jTOQPvrztz-119" value="" style="endArrow=none;html=1;rounded=0;labelBackgroundColor=default;strokeColor=default;strokeWidth=0.7;fontFamily=Helvetica;fontSize=13;fontColor=none;endSize=2;shape=connector;exitX=0.5;exitY=1;exitDx=0;exitDy=0;entryX=0.5;entryY=0;entryDx=0;entryDy=0;" edge="1" parent="1" source="GvLJOt44-2jTOQPvrztz-118" target="GvLJOt44-2jTOQPvrztz-118">
          <mxGeometry width="50" height="50" relative="1" as="geometry">
            <mxPoint x="440" y="240" as="sourcePoint" />
            <mxPoint x="490" y="190" as="targetPoint" />
          </mxGeometry>
        </mxCell>
        <mxCell id="GvLJOt44-2jTOQPvrztz-120" value="" style="endArrow=none;html=1;rounded=0;labelBackgroundColor=default;strokeColor=default;strokeWidth=0.7;fontFamily=Helvetica;fontSize=13;fontColor=none;endSize=2;shape=connector;exitX=0;exitY=0.5;exitDx=0;exitDy=0;" edge="1" parent="1" source="GvLJOt44-2jTOQPvrztz-118">
          <mxGeometry width="50" height="50" relative="1" as="geometry">
            <mxPoint x="440" y="240" as="sourcePoint" />
            <mxPoint x="470" y="290" as="targetPoint" />
          </mxGeometry>
        </mxCell>
        <mxCell id="GvLJOt44-2jTOQPvrztz-122" value="1" style="text;html=1;align=center;verticalAlign=middle;resizable=0;points=[];autosize=1;strokeColor=none;fillColor=none;fontSize=13;fontFamily=Helvetica;fontColor=none;" vertex="1" parent="1">
          <mxGeometry x="424" y="259" width="30" height="30" as="geometry" />
        </mxCell>
        <mxCell id="GvLJOt44-2jTOQPvrztz-123" value="2" style="text;html=1;align=center;verticalAlign=middle;resizable=0;points=[];autosize=1;strokeColor=none;fillColor=none;fontSize=13;fontFamily=Helvetica;fontColor=none;" vertex="1" parent="1">
          <mxGeometry x="424" y="289" width="30" height="30" as="geometry" />
        </mxCell>
        <mxCell id="GvLJOt44-2jTOQPvrztz-125" value="3" style="text;html=1;align=center;verticalAlign=middle;resizable=0;points=[];autosize=1;strokeColor=none;fillColor=none;fontSize=13;fontFamily=Helvetica;fontColor=none;" vertex="1" parent="1">
          <mxGeometry x="485" y="275" width="30" height="30" as="geometry" />
        </mxCell>
      </root>
    </mxGraphModel>
  </diagram>
</mxfile>
